<?xml version="1.0" encoding="utf-8"?>
<!-- Generator: Adobe Illustrator 23.0.3, SVG Export Plug-In . SVG Version: 6.00 Build 0)  -->
<svg version="1.1" id="Layer_1" xmlns="http://www.w3.org/2000/svg" xmlns:xlink="http://www.w3.org/1999/xlink" x="0px" y="0px"
	 viewBox="0 0 1366 768" style="enable-background:new 0 0 1366 768;" xml:space="preserve">
<style type="text/css">
	.st0{fill:#ED145A;}
</style>
<g>
	<path class="st0" d="M416.8,604.2c0-12.6,0-25.3,0-38.9c4.9,0,9.7,0,14.4,0c23,0.2,43.8-6.8,62.8-19.6
		c19.7-13.2,34.4-31.2,47.6-50.6c16.5-24.3,25.1-51.9,34.1-79.5c6.7-20.5,13.2-41.3,22.4-60.7c11.4-24.3,31.2-40.1,57.6-47.1
		c4.8-1.3,8-0.5,9.8,4.5c3.3,9,6.7,18,9.7,26.1c-8.2,4.8-15.7,8.5-22.6,13.4c-15,10.6-23.7,26-29.8,42.7
		c-9.5,26.1-18.1,52.5-27.9,78.4c-16.1,42.3-41.3,78.2-78.2,104.9c-20.5,14.8-43.6,24.2-69.2,26.2
		C437.5,604.9,427.3,604.2,416.8,604.2z"/>
	<path class="st0" d="M729.4,345.9c-8.3-2.7-16.7-5.5-25.1-8.2c-0.5-0.2-0.9-0.3-1.4-0.4c-3.2-0.4-7.6,0.3-9.4-1.5
		c-1.9-1.9-1.3-6.2-2-9.5c-3.4-16.1-9-31-22.1-42c-18.4-15.4-39.1-18.9-61-9.9c-22.3,9.2-34.1,26.7-35.6,50.9
		c-0.3,4.6,0.6,9.2,0.7,13.8c0,1.4,0,3.1-0.8,4.2c-10.1,15.2-15.6,31.7-14.8,50.3c-25.3-16.2-33.4-69.5-16.5-106.6
		c21.4-47,69.9-66.5,117.7-53.3C706.6,247,736.5,295.9,729.4,345.9z"/>
	<path class="st0" d="M844,176.2c0,11.9,0,23.3-0.1,34.8c0,1-0.8,2.3-1.6,2.8c-18.7,11.8-27.1,30.1-32.8,50.5
		c-15,53.5-30.3,107-45.8,160.4c-6.6,22.8-13.9,45.4-20.9,68c-0.2,0.8-0.6,1.5-1.3,3c-1.8-2.4-3.5-4.2-4.7-6.3
		c-6.3-10.9-12.7-21.9-18.6-33c-1.2-2.2-1.4-5.6-0.7-8.1c6.9-24.8,14.1-49.6,21.4-74.3c14.5-49.3,29-98.5,43.9-147.7
		c3.8-12.6,9.3-24.6,19.3-33.8C813.7,181.8,827.7,176.8,844,176.2z"/>
	<path class="st0" d="M519.5,496.8c-6.9-23-13.6-44.5-19.8-66.2c-16.5-57.4-33-114.8-49.2-172.4c-5.3-18.9-15.2-34.2-31.2-45.6
		c-1.1-0.8-2.4-2.2-2.4-3.3c-0.2-10.8-0.1-21.6-0.1-32.9c13-0.3,24.3,3.3,34.7,10.1c12.5,8.1,20.7,19.7,25.3,33.7
		c7.1,21.6,14,43.3,20.3,65.2c14.8,50.6,29.2,101.3,43.8,152c1.2,4.1,2.3,8.3,3.2,12.5c0.3,1.2,0.4,2.7-0.1,3.8
		C537.9,468.6,529.6,482.4,519.5,496.8z"/>
	<path class="st0" d="M844,566.4c0,12.6,0,25.1,0,38.2c-9.2,0-18.3,0.8-27.3-0.1c-59.8-6.1-99.5-41.6-129.8-90.2
		c-19.4-31.1-30.2-65.8-41.5-100.3c-0.2-0.5-0.2-1-0.5-1.4c-8.1-14.4-0.2-25.4,8.1-35.9c4.2-5.2,9.8-9.2,15.4-14.3
		c4.9,14.9,9.5,28.7,14.1,42.6c7.7,23.3,13.1,47.5,24.9,69.3c13.7,25.4,29.9,48.8,53.1,66.5c20.2,15.4,42.7,24.8,68.6,24.7
		c4.3,0,8.7,0.2,13,0.4C842.7,566,843.2,566.2,844,566.4z"/>
	<path class="st0" d="M741.1,230.1c-62.2-65.7-169.4-57.6-220.5,0.9c-4.9-14.3-9.7-28.3-14.6-42.8c14.3-11.5,30.4-20.6,47.7-27.7
		c30-12.3,61.3-16.5,93.4-14.2c38.1,2.7,72.4,16.2,103.7,37.9c4.1,2.9,4.8,5.4,3,10.2C749.2,206,745.4,217.9,741.1,230.1z"/>
	<path class="st0" d="M417.8,280c4.5,15.5,8.1,30,12.9,44.1c4.1,12,3.6,23.6,2.1,36c-5,40.9,3.3,79.7,21.9,116.4
		c5.6,11.1,12.4,21.6,18.9,33c-9.5,8.1-20.6,14.1-33.4,16.5c-1.3,0.2-3.6-1.8-4.6-3.3c-16.5-24-27.9-50.4-34.7-78.6
		c-3.9-16.2-5.9-33-7.4-49.7c-3.5-39.3,6.3-76.1,22.6-111.5C416.3,282.2,416.7,281.7,417.8,280z"/>
	<path class="st0" d="M844.3,280.1c9.9,21.6,17.7,43.1,21.2,66c1.7,11.3,3.2,22.7,3.1,34.1c-0.7,49.6-13.3,95.8-40.3,137.8
		c-5.7,8.9-5.9,9.3-15.8,5.3c-8.5-3.4-16.6-7.9-25.4-12.1c2.7-4.7,4.6-8.2,6.7-11.5c16.6-26,27.5-54.2,33.4-84.3
		c4.5-23.1,5-46.2-0.6-69.2c-0.4-1.7-0.8-3.7-0.3-5.3c5.5-19.3,11.2-38.6,16.9-58C843.3,282.2,843.6,281.6,844.3,280.1z"/>
	<path class="st0" d="M711.6,603.8c-44.4,25-117.7,24-162.1,0.4c9.3-9.1,18.5-18.3,28.1-27.1c1.2-1.1,4.4-1,6.4-0.3
		c16,5.1,32.7,6.9,49.2,6.2c13.8-0.6,27.6-3.4,41.3-5.9c5.1-0.9,8.4-1.6,12.6,3.3c6.9,8,15.4,14.6,23.2,21.9
		C710.8,602.8,711.2,603.3,711.6,603.8z"/>
	<path class="st0" d="M656.2,539.6c-16.9,3.2-33.7,2.7-50.9-0.2c8.6-18.5,16.9-36.3,25.3-54.4C639.2,503.2,647.6,521.1,656.2,539.6z
		"/>
	<path class="st0" d="M707.5,394c-4.7-13.1-8.9-25-13.3-37.1c10.1-0.1,18.3,4,25.9,9.6c0.9,0.6,1.6,2.9,1.2,3.7
		C717,378,712.4,385.6,707.5,394z"/>
</g>
</svg>
